<?xml version="1.0" encoding="UTF-8" standalone="no"?>
<!-- Created with Inkscape (http://www.inkscape.org/) -->

<svg
   width="210mm"
   height="297mm"
   viewBox="0 0 210 297"
   version="1.1"
   id="svg5"
   inkscape:version="1.2.2 (732a01da63, 2022-12-09)"
   sodipodi:docname="pokemon app template.svg"
   xmlns:inkscape="http://www.inkscape.org/namespaces/inkscape"
   xmlns:sodipodi="http://sodipodi.sourceforge.net/DTD/sodipodi-0.dtd"
   xmlns="http://www.w3.org/2000/svg"
   xmlns:svg="http://www.w3.org/2000/svg">
  <sodipodi:namedview
     id="namedview7"
     pagecolor="#ffffff"
     bordercolor="#000000"
     borderopacity="0.25"
     inkscape:showpageshadow="2"
     inkscape:pageopacity="0.0"
     inkscape:pagecheckerboard="0"
     inkscape:deskcolor="#d1d1d1"
     inkscape:document-units="mm"
     showgrid="false"
     inkscape:zoom="0.72515432"
     inkscape:cx="397.84635"
     inkscape:cy="9.6531177"
     inkscape:window-width="1920"
     inkscape:window-height="1001"
     inkscape:window-x="-9"
     inkscape:window-y="-9"
     inkscape:window-maximized="1"
     inkscape:current-layer="layer1" />
  <defs
     id="defs2">
    <rect
       x="485.41392"
       y="73.087891"
       width="241.32794"
       height="34.47542"
       id="rect1469" />
  </defs>
  <g
     inkscape:label="Layer 1"
     inkscape:groupmode="layer"
     id="layer1">
    <rect
       style="fill:#ff0000;stroke-width:0.264583"
       id="rect165"
       width="176.95946"
       height="238.62163"
       x="19.337837"
       y="31.743242" />
    <rect
       style="fill:#550000;stroke-width:0.212536"
       id="rect323"
       width="176.22972"
       height="23.716217"
       x="19.702702"
       y="48.891888" />
    <rect
       style="fill:#0000ff;stroke-width:0.264583"
       id="rect532"
       width="59.837837"
       height="18.243244"
       x="24.445946"
       y="91.216217" />
    <text
       xml:space="preserve"
       style="font-size:11.0291px;fill:#f2f2f2;stroke-width:0.919089"
       x="39.453716"
       y="71.507477"
       id="text703-2"
       transform="scale(0.67419417,1.4832522)"><tspan
         sodipodi:role="line"
         style="stroke-width:0.919089"
         x="39.453716"
         y="71.507477"
         id="tspan782">Pokemon item</tspan></text>
    <rect
       style="fill:#0000ff;stroke-width:0.264583"
       id="rect532-3"
       width="59.837837"
       height="18.243244"
       x="24.081081"
       y="117.48649" />
    <text
       xml:space="preserve"
       style="font-size:11.0291px;fill:#f2f2f2;stroke-width:0.919089"
       x="38.912529"
       y="89.218742"
       id="text703-2-3"
       transform="scale(0.67419417,1.4832522)"><tspan
         sodipodi:role="line"
         style="stroke-width:0.919089"
         x="38.912529"
         y="89.218742"
         id="tspan782-6">Pokemon item</tspan></text>
    <rect
       style="fill:#0000ff;stroke-width:0.264583"
       id="rect532-0"
       width="59.837837"
       height="18.243244"
       x="23.351351"
       y="141.56757" />
    <text
       xml:space="preserve"
       style="font-size:11.0291px;fill:#f2f2f2;stroke-width:0.919089"
       x="37.830158"
       y="105.45406"
       id="text703-2-31"
       transform="scale(0.67419417,1.4832522)"><tspan
         sodipodi:role="line"
         style="stroke-width:0.919089"
         x="37.830158"
         y="105.45406"
         id="tspan782-1">Pokemon item</tspan></text>
    <rect
       style="fill:#0000ff;stroke-width:0.264583"
       id="rect532-7"
       width="59.837837"
       height="18.243244"
       x="22.256758"
       y="163.82433" />
    <text
       xml:space="preserve"
       style="font-size:11.0291px;fill:#f2f2f2;stroke-width:0.919089"
       x="36.206596"
       y="120.45944"
       id="text703-2-1"
       transform="scale(0.67419417,1.4832522)"><tspan
         sodipodi:role="line"
         style="stroke-width:0.919089"
         x="36.206596"
         y="120.45944"
         id="tspan782-7">Pokemon item</tspan></text>
    <rect
       style="fill:#0000ff;stroke-width:0.264583"
       id="rect532-9"
       width="59.837837"
       height="18.243244"
       x="20.432432"
       y="190.09459" />
    <text
       xml:space="preserve"
       style="font-size:11.0291px;fill:#f2f2f2;stroke-width:0.919089"
       x="33.500664"
       y="138.1707"
       id="text703-2-9"
       transform="scale(0.67419417,1.4832522)"><tspan
         sodipodi:role="line"
         style="stroke-width:0.919089"
         x="33.500664"
         y="138.1707"
         id="tspan782-2">Pokemon item</tspan></text>
    <rect
       style="fill:#0000ff;stroke-width:0.264583"
       id="rect532-8"
       width="59.837837"
       height="18.243244"
       x="20.432432"
       y="212.71622" />
    <text
       xml:space="preserve"
       style="font-size:11.0291px;fill:#f2f2f2;stroke-width:0.919089"
       x="33.500664"
       y="153.42207"
       id="text703-2-6"
       transform="scale(0.67419417,1.4832522)"><tspan
         sodipodi:role="line"
         style="stroke-width:0.919089"
         x="33.500664"
         y="153.42207"
         id="tspan782-9">Pokemon item</tspan></text>
    <rect
       style="fill:#0000ff;stroke-width:0.264583"
       id="rect532-4"
       width="59.837837"
       height="18.243244"
       x="21.527027"
       y="235.70271" />
    <text
       xml:space="preserve"
       style="font-size:11.0291px;fill:#f2f2f2;stroke-width:0.919089"
       x="35.124226"
       y="168.91943"
       id="text703-2-4"
       transform="scale(0.67419417,1.4832522)"><tspan
         sodipodi:role="line"
         style="stroke-width:0.919089"
         x="35.124226"
         y="168.91943"
         id="tspan782-92">Pokemon item</tspan></text>
    <rect
       style="fill:#0000ff;stroke-width:0.264583"
       id="rect532-5"
       width="59.837837"
       height="18.243244"
       x="87.020264"
       y="92.310806" />
    <text
       xml:space="preserve"
       style="font-size:11.0291px;fill:#f2f2f2;stroke-width:0.919089"
       x="132.26723"
       y="72.245438"
       id="text703-2-7"
       transform="scale(0.67419417,1.4832522)"><tspan
         sodipodi:role="line"
         style="stroke-width:0.919089"
         x="132.26723"
         y="72.245438"
         id="tspan782-5">Pokemon item</tspan></text>
    <rect
       style="fill:#0000ff;stroke-width:0.264583"
       id="rect532-3-5"
       width="59.837837"
       height="18.243244"
       x="86.655403"
       y="118.58108" />
    <text
       xml:space="preserve"
       style="font-size:11.0291px;fill:#f2f2f2;stroke-width:0.919089"
       x="131.72603"
       y="89.956711"
       id="text703-2-3-4"
       transform="scale(0.67419417,1.4832522)"><tspan
         sodipodi:role="line"
         style="stroke-width:0.919089"
         x="131.72603"
         y="89.956711"
         id="tspan782-6-6">Pokemon item</tspan></text>
    <rect
       style="fill:#0000ff;stroke-width:0.264583"
       id="rect532-0-3"
       width="59.837837"
       height="18.243244"
       x="85.925674"
       y="142.66216" />
    <text
       xml:space="preserve"
       style="font-size:11.0291px;fill:#f2f2f2;stroke-width:0.919089"
       x="130.64366"
       y="106.19202"
       id="text703-2-31-2"
       transform="scale(0.67419417,1.4832522)"><tspan
         sodipodi:role="line"
         style="stroke-width:0.919089"
         x="130.64366"
         y="106.19202"
         id="tspan782-1-0">Pokemon item</tspan></text>
    <rect
       style="fill:#0000ff;stroke-width:0.264583"
       id="rect532-7-4"
       width="59.837837"
       height="18.243244"
       x="84.831078"
       y="164.91891" />
    <text
       xml:space="preserve"
       style="font-size:11.0291px;fill:#f2f2f2;stroke-width:0.919089"
       x="129.0201"
       y="121.1974"
       id="text703-2-1-3"
       transform="scale(0.67419417,1.4832522)"><tspan
         sodipodi:role="line"
         style="stroke-width:0.919089"
         x="129.0201"
         y="121.1974"
         id="tspan782-7-6">Pokemon item</tspan></text>
    <rect
       style="fill:#0000ff;stroke-width:0.264583"
       id="rect532-9-5"
       width="59.837837"
       height="18.243244"
       x="83.006752"
       y="191.18918" />
    <text
       xml:space="preserve"
       style="font-size:11.0291px;fill:#f2f2f2;stroke-width:0.919089"
       x="126.31418"
       y="138.90866"
       id="text703-2-9-3"
       transform="scale(0.67419417,1.4832522)"><tspan
         sodipodi:role="line"
         style="stroke-width:0.919089"
         x="126.31418"
         y="138.90866"
         id="tspan782-2-3">Pokemon item</tspan></text>
    <rect
       style="fill:#0000ff;stroke-width:0.264583"
       id="rect532-8-0"
       width="59.837837"
       height="18.243244"
       x="83.006752"
       y="213.81081" />
    <text
       xml:space="preserve"
       style="font-size:11.0291px;fill:#f2f2f2;stroke-width:0.919089"
       x="126.31418"
       y="154.16003"
       id="text703-2-6-4"
       transform="scale(0.67419417,1.4832522)"><tspan
         sodipodi:role="line"
         style="stroke-width:0.919089"
         x="126.31418"
         y="154.16003"
         id="tspan782-9-5">Pokemon item</tspan></text>
    <rect
       style="fill:#0000ff;stroke-width:0.264583"
       id="rect532-4-8"
       width="59.837837"
       height="18.243244"
       x="84.101349"
       y="236.7973" />
    <text
       xml:space="preserve"
       style="font-size:11.0291px;fill:#f2f2f2;stroke-width:0.919089"
       x="127.93773"
       y="169.65739"
       id="text703-2-4-1"
       transform="scale(0.67419417,1.4832522)"><tspan
         sodipodi:role="line"
         style="stroke-width:0.919089"
         x="127.93773"
         y="169.65739"
         id="tspan782-92-8">Pokemon item</tspan></text>
    <rect
       style="fill:#0000ff;stroke-width:0.264583"
       id="rect532-6"
       width="59.837837"
       height="18.243244"
       x="149.04729"
       y="93.405403" />
    <text
       xml:space="preserve"
       style="font-size:11.0291px;fill:#f2f2f2;stroke-width:0.919089"
       x="224.26894"
       y="72.983406"
       id="text703-2-0"
       transform="scale(0.67419417,1.4832522)"><tspan
         sodipodi:role="line"
         style="stroke-width:0.919089"
         x="224.26894"
         y="72.983406"
         id="tspan782-77">Pokemon item</tspan></text>
    <rect
       style="fill:#0000ff;stroke-width:0.264583"
       id="rect532-3-6"
       width="59.837837"
       height="18.243244"
       x="148.68242"
       y="119.67567" />
    <text
       xml:space="preserve"
       style="font-size:11.0291px;fill:#f2f2f2;stroke-width:0.919089"
       x="223.72775"
       y="90.694679"
       id="text703-2-3-5"
       transform="scale(0.67419417,1.4832522)"><tspan
         sodipodi:role="line"
         style="stroke-width:0.919089"
         x="223.72775"
         y="90.694679"
         id="tspan782-6-7">Pokemon item</tspan></text>
    <rect
       style="fill:#0000ff;stroke-width:0.264583"
       id="rect532-0-4"
       width="59.837837"
       height="18.243244"
       x="147.9527"
       y="143.75674" />
    <text
       xml:space="preserve"
       style="font-size:11.0291px;fill:#f2f2f2;stroke-width:0.919089"
       x="222.64539"
       y="106.93"
       id="text703-2-31-9"
       transform="scale(0.67419417,1.4832522)"><tspan
         sodipodi:role="line"
         style="stroke-width:0.919089"
         x="222.64539"
         y="106.93"
         id="tspan782-1-09">Pokemon item</tspan></text>
    <rect
       style="fill:#0000ff;stroke-width:0.264583"
       id="rect532-7-2"
       width="59.837837"
       height="18.243244"
       x="146.85811"
       y="166.0135" />
    <text
       xml:space="preserve"
       style="font-size:11.0291px;fill:#f2f2f2;stroke-width:0.919089"
       x="221.02182"
       y="121.93538"
       id="text703-2-1-4"
       transform="scale(0.67419417,1.4832522)"><tspan
         sodipodi:role="line"
         style="stroke-width:0.919089"
         x="221.02182"
         y="121.93538"
         id="tspan782-7-4">Pokemon item</tspan></text>
    <rect
       style="fill:#0000ff;stroke-width:0.264583"
       id="rect532-9-0"
       width="59.837837"
       height="18.243244"
       x="145.03378"
       y="192.28377" />
    <text
       xml:space="preserve"
       style="font-size:11.0291px;fill:#f2f2f2;stroke-width:0.919089"
       x="218.31589"
       y="139.64664"
       id="text703-2-9-4"
       transform="scale(0.67419417,1.4832522)"><tspan
         sodipodi:role="line"
         style="stroke-width:0.919089"
         x="218.31589"
         y="139.64664"
         id="tspan782-2-6">Pokemon item</tspan></text>
    <rect
       style="fill:#0000ff;stroke-width:0.264583"
       id="rect532-8-3"
       width="59.837837"
       height="18.243244"
       x="145.03378"
       y="214.9054" />
    <text
       xml:space="preserve"
       style="font-size:11.0291px;fill:#f2f2f2;stroke-width:0.919089"
       x="218.31589"
       y="154.89799"
       id="text703-2-6-1"
       transform="scale(0.67419417,1.4832522)"><tspan
         sodipodi:role="line"
         style="stroke-width:0.919089"
         x="218.31589"
         y="154.89799"
         id="tspan782-9-51">Pokemon item</tspan></text>
    <rect
       style="fill:#0000ff;stroke-width:0.264583"
       id="rect532-4-6"
       width="59.837837"
       height="18.243244"
       x="146.12837"
       y="237.89189" />
    <text
       xml:space="preserve"
       style="font-size:11.0291px;fill:#f2f2f2;stroke-width:0.919089"
       x="219.93945"
       y="170.39537"
       id="text703-2-4-5"
       transform="scale(0.67419417,1.4832522)"><tspan
         sodipodi:role="line"
         style="stroke-width:0.919089"
         x="219.93945"
         y="170.39537"
         id="tspan782-92-1">Pokemon item</tspan></text>
    <text
       xml:space="preserve"
       style="font-size:13.8712px;fill:#f2f2f2;stroke-width:1.15593"
       x="38.326431"
       y="41.852772"
       id="text703"
       transform="scale(0.89972315,1.111453)"><tspan
         sodipodi:role="line"
         id="tspan701"
         style="stroke-width:1.15593"
         x="38.326431"
         y="41.852772">Pokemon</tspan></text>
    <text
       xml:space="preserve"
       transform="matrix(1.4671158,0,0,1.1278133,-576.74352,-73.06393)"
       id="text1467"
       style="white-space:pre;shape-inside:url(#rect1469);fill:#2b0000"><tspan
         x="485.41406"
         y="84.035854"
         id="tspan1669">Navbar</tspan></text>
    <path
       style="fill:#2b0000;stroke-width:0.264583"
       d="m 171.48648,25.54054 c 0.48649,0 1.02434,-0.217563 1.45946,0 0.39222,0.196109 0.41966,0.784519 0.72973,1.094596 2.35669,2.356683 0.019,-0.706948 1.82433,1.459457 4.21853,5.062246 -2.68751,-2.83137 2.55405,3.283786 0.33581,0.391774 0.80837,0.665258 1.0946,1.094595 0.15085,0.226279 0.17256,0.537427 0.36486,0.729728 0.086,0.086 0.27887,-0.086 0.36487,0 0.17199,0.171998 -0.0769,0.49897 0,0.729729 0.15498,0.464963 0.53588,1.071761 0.72973,1.45946 0.75924,1.518481 -0.0252,-0.390054 0.72973,0.364866 0.4444,0.444399 0.17091,0.815184 0.72973,1.094594 0.10878,0.05439 0.27886,-0.086 0.36486,0 0.172,0.171998 -0.172,0.557731 0,0.729729 0.12162,0.121621 0.97297,0.243245 1.0946,0.364866 0.086,0.086 -0.0544,0.256082 0,0.364866 0.15383,0.307678 0.57589,0.422047 0.72972,0.729728 0.0544,0.108781 -0.12162,0.364866 0,0.364866 0.38214,0 -1.12799,-1.228175 -1.45946,-2.554055 -0.059,-0.235981 0.0769,-0.498969 0,-0.729731 -0.10878,-0.326345 -0.57589,-0.422047 -0.72972,-0.729729 -0.10879,-0.217564 0.10878,-0.512167 0,-0.729729 -0.26607,-0.532127 -0.58369,-0.583684 -0.72973,-0.729731 -0.44518,-0.445172 -0.21455,-1.309137 -0.72973,-1.824323 -0.12163,-0.121621 -0.28795,-0.211024 -0.36487,-0.364866 -0.10878,-0.217561 0.24324,-0.729729 0,-0.729729 -0.0257,0 0.63181,0.955104 1.0946,2.189189 0.24494,0.65319 1.48064,4.399569 1.82432,4.743244 0.0198,0.01976 1.07482,0.709959 1.09459,0.729729 0.172,0.172 -0.17199,0.557731 0,0.729731 0.12163,0.121621 0.48649,0.243242 0.36487,0.364863 -0.086,0.086 -0.24324,0 -0.36487,0 -1.99816,0 -1.44315,-0.348559 -2.55405,-1.459457 -0.66892,-0.66892 -3.3446,0.668917 -4.01351,0 -0.086,-0.086 0.086,-0.278866 0,-0.364866 -0.0823,-0.08231 -1.66125,-0.163073 -1.0946,-0.729732 0.172,-0.171997 0.48649,0 0.72973,0 1.02789,0 3.01169,-0.333938 4.01352,0 1.13886,0.379622 -0.12163,0.243245 0.36486,0.729732 0.75492,0.754917 -0.0295,-1.153615 0.72973,0.364866 0.11057,0.221128 0.21197,0.941699 0.36486,1.094594 0.0365,0.03649 1.05811,0.03649 1.0946,0 0.172,-0.172 0,-0.486487 0,-0.729731 0,-2.72433 -0.93197,-3.242077 -1.82432,-5.472973 -0.0444,-0.111051 -0.44188,-1.901335 0,-1.45946 0.97297,1.945947 -0.36487,-0.364863 1.09459,1.094595 0.49271,0.492712 2.7194,6.767083 2.55405,6.932432 -0.26198,0.26198 -2.54347,0 -2.91892,0 -0.34396,0 -1.80005,0.194567 -2.18918,0 -0.63415,-0.317071 -0.75083,-0.223139 -1.45946,-0.364863 -6.38092,-1.276186 4.22124,-0.572601 4.37838,-0.729731 0.35458,-0.354584 -0.24325,-0.972974 -0.36487,-1.459461 -0.21252,-0.850077 -0.36827,-1.831141 -0.72973,-2.554052 -0.15384,-0.307681 -0.57589,-0.42205 -0.72973,-0.729731 -0.70603,-1.412065 0.50889,0.144031 -0.72973,-1.094594 -0.1896,-0.189601 0,-0.63299 0,0.364865"
       id="path1592" />
  </g>
</svg>
